<svg viewBox="0 0 22 22" xmlns="http://www.w3.org/2000/svg" xmlns:xlink="http://www.w3.org/1999/xlink" width="22.000000" height="22.000000" fill="none">
	<rect id="Скачать 3 1" width="22.000000" height="22.000000" x="0.000000" y="0.000000" />
	<path id="Форма 30" d="M5.35195 9.29077C3.33394 9.77069 1.83301 11.585 1.83301 13.7499C1.83301 16.2812 3.88503 18.3332 6.41634 18.3332C6.85057 18.3332 7.27067 18.2729 7.66874 18.16" fill-rule="nonzero" stroke="rgb(28,77,254)" stroke-linecap="round" stroke-linejoin="round" stroke-width="1.500000" />
	<path id="Форма 31" d="M16.5248 9.29077C18.5428 9.77069 20.0437 11.585 20.0437 13.7499C20.0437 16.2812 17.9917 18.3332 15.4604 18.3332C15.0262 18.3332 14.6061 18.2729 14.208 18.16" fill-rule="nonzero" stroke="rgb(28,77,254)" stroke-linecap="round" stroke-linejoin="round" stroke-width="1.500000" />
	<path id="Форма 32" d="M16.5 9.16675C16.5 6.12919 14.0376 3.66675 11 3.66675C7.96244 3.66675 5.5 6.12919 5.5 9.16675" fill-rule="nonzero" stroke="rgb(28,77,254)" stroke-linecap="round" stroke-linejoin="round" stroke-width="1.500000" />
	<path id="Форма 33" d="M7.82129 13.8045L10.9996 16.9934L14.2684 13.75" fill-rule="nonzero" stroke="rgb(28,77,254)" stroke-linecap="round" stroke-linejoin="round" stroke-width="1.466666" />
	<path id="Форма 34" d="M11 9.16675L11.001 16.603" stroke="rgb(28,77,254)" stroke-linecap="round" stroke-linejoin="round" stroke-width="1.500000" />
</svg>
